<svg xmlns="http://www.w3.org/2000/svg" viewBox="0 0 128 128" fill="none">
  <circle cx="64" cy="64" r="56" fill="#6366f1" />
  <path d="M44 52c0-11 9-20 20-20s20 9 20 20" stroke="#fff" stroke-width="5" stroke-linecap="round" fill="none"/>
  <path d="M44 52c-6 0-12 5-12 12s6 12 12 12" stroke="#fff" stroke-width="5" stroke-linecap="round" fill="none"/>
  <path d="M84 52c6 0 12 5 12 12s-6 12-12 12" stroke="#fff" stroke-width="5" stroke-linecap="round" fill="none"/>
  <path d="M44 76c0 11 9 20 20 20s20-9 20-20" stroke="#fff" stroke-width="5" stroke-linecap="round" fill="none"/>
  <circle cx="64" cy="64" r="6" fill="#fff"/>
  <line x1="64" y1="58" x2="64" y2="38" stroke="#fff" stroke-width="3" stroke-linecap="round"/>
  <line x1="58" y1="64" x2="38" y2="64" stroke="#fff" stroke-width="3" stroke-linecap="round"/>
  <line x1="70" y1="64" x2="90" y2="64" stroke="#fff" stroke-width="3" stroke-linecap="round"/>
  <line x1="64" y1="70" x2="64" y2="90" stroke="#fff" stroke-width="3" stroke-linecap="round"/>
</svg>
